<svg xmlns="http://www.w3.org/2000/svg" version="1.1" xmlns:xlink="http://www.w3.org/1999/xlink" xmlns:svgjs="http://svgjs.com/svgjs" width="1440" height="560" preserveAspectRatio="none" viewBox="0 0 1440 560"><g mask="url(&quot;#SvgjsMask1016&quot;)" fill="none"><path d="M-112.28 369.09L-112.28 369.09" stroke="rgba(0, 0, 0, 1)" stroke-width="1.5"></path><path d="M-112.28 369.09L-44.55 507.98" stroke="rgba(0, 0, 0, 1)" stroke-width="1.5"></path><path d="M-112.28 369.09L50.18 395.24" stroke="rgba(0, 0, 0, 1)" stroke-width="1.5"></path><path d="M-112.28 369.09L112 495.23" stroke="rgba(0, 0, 0, 1)" stroke-width="1.5"></path><path d="M-112.28 369.09L217.3 349.6" stroke="rgba(0, 0, 0, 1)" stroke-width="1.5"></path><path d="M-112.28 369.09L198.43 552.78" stroke="rgba(0, 0, 0, 1)" stroke-width="1.5"></path><path d="M-44.55 507.98L-44.55 507.98" stroke="rgba(0, 0, 0, 1)" stroke-width="1.5"></path><path d="M-44.55 507.98L50.18 395.24" stroke="rgba(0, 0, 0, 1)" stroke-width="1.5"></path><path d="M-44.55 507.98L112 495.23" stroke="rgba(0, 0, 0, 1)" stroke-width="1.5"></path><path d="M50.18 395.24L50.18 395.24" stroke="rgba(0, 0, 0, 1)" stroke-width="1.5"></path><path d="M50.18 395.24L112 495.23" stroke="rgba(0, 0, 0, 1)" stroke-width="1.5"></path><path d="M112 495.23L112 495.23" stroke="rgba(0, 0, 0, 1)" stroke-width="1.5"></path><path d="M112 495.23L198.43 552.78" stroke="rgba(0, 0, 0, 1)" stroke-width="1.5"></path><path d="M112 495.23L217.3 349.6" stroke="rgba(0, 0, 0, 1)" stroke-width="1.5"></path><path d="M112 495.23L361.07 552.93" stroke="rgba(0, 0, 0, 1)" stroke-width="1.5"></path><path d="M217.3 349.6L217.3 349.6" stroke="rgba(0, 0, 0, 1)" stroke-width="1.5"></path><path d="M217.3 349.6L50.18 395.24" stroke="rgba(0, 0, 0, 1)" stroke-width="1.5"></path><path d="M217.3 349.6L401.63 349.9" stroke="rgba(0, 0, 0, 1)" stroke-width="1.5"></path><path d="M217.3 349.6L198.43 552.78" stroke="rgba(0, 0, 0, 1)" stroke-width="1.5"></path><path d="M217.3 349.6L361.07 552.93" stroke="rgba(0, 0, 0, 1)" stroke-width="1.5"></path><path d="M217.3 349.6L-44.55 507.98" stroke="rgba(0, 0, 0, 1)" stroke-width="1.5"></path><path d="M198.43 552.78L198.43 552.78" stroke="rgba(0, 0, 0, 1)" stroke-width="1.5"></path><path d="M198.43 552.78L361.07 552.93" stroke="rgba(0, 0, 0, 1)" stroke-width="1.5"></path><path d="M198.43 552.78L342.29 694.32" stroke="rgba(0, 0, 0, 1)" stroke-width="1.5"></path><path d="M401.63 349.9L401.63 349.9" stroke="rgba(0, 0, 0, 1)" stroke-width="1.5"></path><path d="M401.63 349.9L536.85 386.99" stroke="rgba(0, 0, 0, 1)" stroke-width="1.5"></path><path d="M361.07 552.93L361.07 552.93" stroke="rgba(0, 0, 0, 1)" stroke-width="1.5"></path><path d="M361.07 552.93L500.57 535.4" stroke="rgba(0, 0, 0, 1)" stroke-width="1.5"></path><path d="M361.07 552.93L342.29 694.32" stroke="rgba(0, 0, 0, 1)" stroke-width="1.5"></path><path d="M361.07 552.93L533.9 661.91" stroke="rgba(0, 0, 0, 1)" stroke-width="1.5"></path><path d="M361.07 552.93L401.63 349.9" stroke="rgba(0, 0, 0, 1)" stroke-width="1.5"></path><path d="M361.07 552.93L536.85 386.99" stroke="rgba(0, 0, 0, 1)" stroke-width="1.5"></path><path d="M342.29 694.32L342.29 694.32" stroke="rgba(0, 0, 0, 1)" stroke-width="1.5"></path><path d="M342.29 694.32L533.9 661.91" stroke="rgba(0, 0, 0, 1)" stroke-width="1.5"></path><path d="M342.29 694.32L500.57 535.4" stroke="rgba(0, 0, 0, 1)" stroke-width="1.5"></path><path d="M342.29 694.32L112 495.23" stroke="rgba(0, 0, 0, 1)" stroke-width="1.5"></path><path d="M536.85 386.99L536.85 386.99" stroke="rgba(0, 0, 0, 1)" stroke-width="1.5"></path><path d="M536.85 386.99L643.66 390.14" stroke="rgba(0, 0, 0, 1)" stroke-width="1.5"></path><path d="M536.85 386.99L500.57 535.4" stroke="rgba(0, 0, 0, 1)" stroke-width="1.5"></path><path d="M536.85 386.99L668.86 518.14" stroke="rgba(0, 0, 0, 1)" stroke-width="1.5"></path><path d="M500.57 535.4L500.57 535.4" stroke="rgba(0, 0, 0, 1)" stroke-width="1.5"></path><path d="M500.57 535.4L533.9 661.91" stroke="rgba(0, 0, 0, 1)" stroke-width="1.5"></path><path d="M533.9 661.91L533.9 661.91" stroke="rgba(0, 0, 0, 1)" stroke-width="1.5"></path><path d="M533.9 661.91L682.58 671.86" stroke="rgba(0, 0, 0, 1)" stroke-width="1.5"></path><path d="M643.66 390.14L643.66 390.14" stroke="rgba(0, 0, 0, 1)" stroke-width="1.5"></path><path d="M643.66 390.14L668.86 518.14" stroke="rgba(0, 0, 0, 1)" stroke-width="1.5"></path><path d="M643.66 390.14L809.36 384.95" stroke="rgba(0, 0, 0, 1)" stroke-width="1.5"></path><path d="M643.66 390.14L500.57 535.4" stroke="rgba(0, 0, 0, 1)" stroke-width="1.5"></path><path d="M643.66 390.14L840.13 251.39" stroke="rgba(0, 0, 0, 1)" stroke-width="1.5"></path><path d="M643.66 390.14L401.63 349.9" stroke="rgba(0, 0, 0, 1)" stroke-width="1.5"></path><path d="M668.86 518.14L668.86 518.14" stroke="rgba(0, 0, 0, 1)" stroke-width="1.5"></path><path d="M668.86 518.14L682.58 671.86" stroke="rgba(0, 0, 0, 1)" stroke-width="1.5"></path><path d="M668.86 518.14L500.57 535.4" stroke="rgba(0, 0, 0, 1)" stroke-width="1.5"></path><path d="M682.58 671.86L682.58 671.86" stroke="rgba(0, 0, 0, 1)" stroke-width="1.5"></path><path d="M682.58 671.86L794.69 684.65" stroke="rgba(0, 0, 0, 1)" stroke-width="1.5"></path><path d="M682.58 671.86L853.21 557.79" stroke="rgba(0, 0, 0, 1)" stroke-width="1.5"></path><path d="M682.58 671.86L500.57 535.4" stroke="rgba(0, 0, 0, 1)" stroke-width="1.5"></path><path d="M840.13 251.39L840.13 251.39" stroke="rgba(0, 0, 0, 1)" stroke-width="1.5"></path><path d="M840.13 251.39L809.36 384.95" stroke="rgba(0, 0, 0, 1)" stroke-width="1.5"></path><path d="M840.13 251.39L999.68 105.98" stroke="rgba(0, 0, 0, 1)" stroke-width="1.5"></path><path d="M840.13 251.39L1125.86 187.75" stroke="rgba(0, 0, 0, 1)" stroke-width="1.5"></path><path d="M840.13 251.39L1010.92 497.44" stroke="rgba(0, 0, 0, 1)" stroke-width="1.5"></path><path d="M840.13 251.39L853.21 557.79" stroke="rgba(0, 0, 0, 1)" stroke-width="1.5"></path><path d="M809.36 384.95L809.36 384.95" stroke="rgba(0, 0, 0, 1)" stroke-width="1.5"></path><path d="M809.36 384.95L853.21 557.79" stroke="rgba(0, 0, 0, 1)" stroke-width="1.5"></path><path d="M809.36 384.95L668.86 518.14" stroke="rgba(0, 0, 0, 1)" stroke-width="1.5"></path><path d="M853.21 557.79L853.21 557.79" stroke="rgba(0, 0, 0, 1)" stroke-width="1.5"></path><path d="M853.21 557.79L794.69 684.65" stroke="rgba(0, 0, 0, 1)" stroke-width="1.5"></path><path d="M853.21 557.79L1010.92 497.44" stroke="rgba(0, 0, 0, 1)" stroke-width="1.5"></path><path d="M853.21 557.79L979.47 670.09" stroke="rgba(0, 0, 0, 1)" stroke-width="1.5"></path><path d="M794.69 684.65L794.69 684.65" stroke="rgba(0, 0, 0, 1)" stroke-width="1.5"></path><path d="M794.69 684.65L979.47 670.09" stroke="rgba(0, 0, 0, 1)" stroke-width="1.5"></path><path d="M794.69 684.65L668.86 518.14" stroke="rgba(0, 0, 0, 1)" stroke-width="1.5"></path><path d="M794.69 684.65L533.9 661.91" stroke="rgba(0, 0, 0, 1)" stroke-width="1.5"></path><path d="M794.69 684.65L1010.92 497.44" stroke="rgba(0, 0, 0, 1)" stroke-width="1.5"></path><path d="M955.25 -97.61L955.25 -97.61" stroke="rgba(0, 0, 0, 1)" stroke-width="1.5"></path><path d="M955.25 -97.61L1152.81 -81.94" stroke="rgba(0, 0, 0, 1)" stroke-width="1.5"></path><path d="M955.25 -97.61L999.68 105.98" stroke="rgba(0, 0, 0, 1)" stroke-width="1.5"></path><path d="M955.25 -97.61L1159.85 93.17" stroke="rgba(0, 0, 0, 1)" stroke-width="1.5"></path><path d="M955.25 -97.61L1250.5 -50.7" stroke="rgba(0, 0, 0, 1)" stroke-width="1.5"></path><path d="M999.68 105.98L999.68 105.98" stroke="rgba(0, 0, 0, 1)" stroke-width="1.5"></path><path d="M999.68 105.98L1125.86 187.75" stroke="rgba(0, 0, 0, 1)" stroke-width="1.5"></path><path d="M999.68 105.98L1159.85 93.17" stroke="rgba(0, 0, 0, 1)" stroke-width="1.5"></path><path d="M1010.92 497.44L1010.92 497.44" stroke="rgba(0, 0, 0, 1)" stroke-width="1.5"></path><path d="M1010.92 497.44L1142 489.83" stroke="rgba(0, 0, 0, 1)" stroke-width="1.5"></path><path d="M1010.92 497.44L1123.07 385.44" stroke="rgba(0, 0, 0, 1)" stroke-width="1.5"></path><path d="M1010.92 497.44L979.47 670.09" stroke="rgba(0, 0, 0, 1)" stroke-width="1.5"></path><path d="M979.47 670.09L979.47 670.09" stroke="rgba(0, 0, 0, 1)" stroke-width="1.5"></path><path d="M979.47 670.09L1109.34 658.64" stroke="rgba(0, 0, 0, 1)" stroke-width="1.5"></path><path d="M979.47 670.09L1142 489.83" stroke="rgba(0, 0, 0, 1)" stroke-width="1.5"></path><path d="M1152.81 -81.94L1152.81 -81.94" stroke="rgba(0, 0, 0, 1)" stroke-width="1.5"></path><path d="M1152.81 -81.94L1250.5 -50.7" stroke="rgba(0, 0, 0, 1)" stroke-width="1.5"></path><path d="M1152.81 -81.94L1159.85 93.17" stroke="rgba(0, 0, 0, 1)" stroke-width="1.5"></path><path d="M1152.81 -81.94L1308.43 92.49" stroke="rgba(0, 0, 0, 1)" stroke-width="1.5"></path><path d="M1152.81 -81.94L1393.05 -56.06" stroke="rgba(0, 0, 0, 1)" stroke-width="1.5"></path><path d="M1152.81 -81.94L999.68 105.98" stroke="rgba(0, 0, 0, 1)" stroke-width="1.5"></path><path d="M1159.85 93.17L1159.85 93.17" stroke="rgba(0, 0, 0, 1)" stroke-width="1.5"></path><path d="M1159.85 93.17L1125.86 187.75" stroke="rgba(0, 0, 0, 1)" stroke-width="1.5"></path><path d="M1159.85 93.17L1308.43 92.49" stroke="rgba(0, 0, 0, 1)" stroke-width="1.5"></path><path d="M1125.86 187.75L1125.86 187.75" stroke="rgba(0, 0, 0, 1)" stroke-width="1.5"></path><path d="M1125.86 187.75L1246.3 218.1" stroke="rgba(0, 0, 0, 1)" stroke-width="1.5"></path><path d="M1125.86 187.75L1123.07 385.44" stroke="rgba(0, 0, 0, 1)" stroke-width="1.5"></path><path d="M1125.86 187.75L1308.43 92.49" stroke="rgba(0, 0, 0, 1)" stroke-width="1.5"></path><path d="M1123.07 385.44L1123.07 385.44" stroke="rgba(0, 0, 0, 1)" stroke-width="1.5"></path><path d="M1123.07 385.44L1142 489.83" stroke="rgba(0, 0, 0, 1)" stroke-width="1.5"></path><path d="M1123.07 385.44L1276.69 354.82" stroke="rgba(0, 0, 0, 1)" stroke-width="1.5"></path><path d="M1142 489.83L1142 489.83" stroke="rgba(0, 0, 0, 1)" stroke-width="1.5"></path><path d="M1142 489.83L1254.48 538.21" stroke="rgba(0, 0, 0, 1)" stroke-width="1.5"></path><path d="M1109.34 658.64L1109.34 658.64" stroke="rgba(0, 0, 0, 1)" stroke-width="1.5"></path><path d="M1109.34 658.64L1268.6 647.44" stroke="rgba(0, 0, 0, 1)" stroke-width="1.5"></path><path d="M1109.34 658.64L1142 489.83" stroke="rgba(0, 0, 0, 1)" stroke-width="1.5"></path><path d="M1109.34 658.64L1254.48 538.21" stroke="rgba(0, 0, 0, 1)" stroke-width="1.5"></path><path d="M1109.34 658.64L1010.92 497.44" stroke="rgba(0, 0, 0, 1)" stroke-width="1.5"></path><path d="M1250.5 -50.7L1250.5 -50.7" stroke="rgba(0, 0, 0, 1)" stroke-width="1.5"></path><path d="M1250.5 -50.7L1393.05 -56.06" stroke="rgba(0, 0, 0, 1)" stroke-width="1.5"></path><path d="M1250.5 -50.7L1308.43 92.49" stroke="rgba(0, 0, 0, 1)" stroke-width="1.5"></path><path d="M1250.5 -50.7L1159.85 93.17" stroke="rgba(0, 0, 0, 1)" stroke-width="1.5"></path><path d="M1308.43 92.49L1308.43 92.49" stroke="rgba(0, 0, 0, 1)" stroke-width="1.5"></path><path d="M1308.43 92.49L1246.3 218.1" stroke="rgba(0, 0, 0, 1)" stroke-width="1.5"></path><path d="M1308.43 92.49L1458.69 40.37" stroke="rgba(0, 0, 0, 1)" stroke-width="1.5"></path><path d="M1308.43 92.49L1393.05 -56.06" stroke="rgba(0, 0, 0, 1)" stroke-width="1.5"></path><path d="M1246.3 218.1L1246.3 218.1" stroke="rgba(0, 0, 0, 1)" stroke-width="1.5"></path><path d="M1246.3 218.1L1276.69 354.82" stroke="rgba(0, 0, 0, 1)" stroke-width="1.5"></path><path d="M1276.69 354.82L1276.69 354.82" stroke="rgba(0, 0, 0, 1)" stroke-width="1.5"></path><path d="M1276.69 354.82L1418.07 354.54" stroke="rgba(0, 0, 0, 1)" stroke-width="1.5"></path><path d="M1254.48 538.21L1254.48 538.21" stroke="rgba(0, 0, 0, 1)" stroke-width="1.5"></path><path d="M1254.48 538.21L1268.6 647.44" stroke="rgba(0, 0, 0, 1)" stroke-width="1.5"></path><path d="M1254.48 538.21L1276.69 354.82" stroke="rgba(0, 0, 0, 1)" stroke-width="1.5"></path><path d="M1254.48 538.21L1446.32 527.28" stroke="rgba(0, 0, 0, 1)" stroke-width="1.5"></path><path d="M1268.6 647.44L1268.6 647.44" stroke="rgba(0, 0, 0, 1)" stroke-width="1.5"></path><path d="M1268.6 647.44L1441.63 657" stroke="rgba(0, 0, 0, 1)" stroke-width="1.5"></path><path d="M1268.6 647.44L1142 489.83" stroke="rgba(0, 0, 0, 1)" stroke-width="1.5"></path><path d="M1268.6 647.44L1446.32 527.28" stroke="rgba(0, 0, 0, 1)" stroke-width="1.5"></path><path d="M1393.05 -56.06L1393.05 -56.06" stroke="rgba(0, 0, 0, 1)" stroke-width="1.5"></path><path d="M1393.05 -56.06L1458.69 40.37" stroke="rgba(0, 0, 0, 1)" stroke-width="1.5"></path><path d="M1393.05 -56.06L1574.32 -111.88" stroke="rgba(0, 0, 0, 1)" stroke-width="1.5"></path><path d="M1393.05 -56.06L1539.87 97.8" stroke="rgba(0, 0, 0, 1)" stroke-width="1.5"></path><path d="M1458.69 40.37L1458.69 40.37" stroke="rgba(0, 0, 0, 1)" stroke-width="1.5"></path><path d="M1458.69 40.37L1539.87 97.8" stroke="rgba(0, 0, 0, 1)" stroke-width="1.5"></path><path d="M1442.73 202.59L1442.73 202.59" stroke="rgba(0, 0, 0, 1)" stroke-width="1.5"></path><path d="M1442.73 202.59L1568.35 245.47" stroke="rgba(0, 0, 0, 1)" stroke-width="1.5"></path><path d="M1442.73 202.59L1539.87 97.8" stroke="rgba(0, 0, 0, 1)" stroke-width="1.5"></path><path d="M1442.73 202.59L1418.07 354.54" stroke="rgba(0, 0, 0, 1)" stroke-width="1.5"></path><path d="M1442.73 202.59L1458.69 40.37" stroke="rgba(0, 0, 0, 1)" stroke-width="1.5"></path><path d="M1442.73 202.59L1308.43 92.49" stroke="rgba(0, 0, 0, 1)" stroke-width="1.5"></path><path d="M1442.73 202.59L1246.3 218.1" stroke="rgba(0, 0, 0, 1)" stroke-width="1.5"></path><path d="M1418.07 354.54L1418.07 354.54" stroke="rgba(0, 0, 0, 1)" stroke-width="1.5"></path><path d="M1446.32 527.28L1446.32 527.28" stroke="rgba(0, 0, 0, 1)" stroke-width="1.5"></path><path d="M1446.32 527.28L1547.78 511.14" stroke="rgba(0, 0, 0, 1)" stroke-width="1.5"></path><path d="M1446.32 527.28L1441.63 657" stroke="rgba(0, 0, 0, 1)" stroke-width="1.5"></path><path d="M1446.32 527.28L1418.07 354.54" stroke="rgba(0, 0, 0, 1)" stroke-width="1.5"></path><path d="M1446.32 527.28L1609.02 403.2" stroke="rgba(0, 0, 0, 1)" stroke-width="1.5"></path><path d="M1446.32 527.28L1598.27 669.25" stroke="rgba(0, 0, 0, 1)" stroke-width="1.5"></path><path d="M1441.63 657L1441.63 657" stroke="rgba(0, 0, 0, 1)" stroke-width="1.5"></path><path d="M1441.63 657L1598.27 669.25" stroke="rgba(0, 0, 0, 1)" stroke-width="1.5"></path><path d="M1574.32 -111.88L1574.32 -111.88" stroke="rgba(0, 0, 0, 1)" stroke-width="1.5"></path><path d="M1539.87 97.8L1539.87 97.8" stroke="rgba(0, 0, 0, 1)" stroke-width="1.5"></path><path d="M1539.87 97.8L1568.35 245.47" stroke="rgba(0, 0, 0, 1)" stroke-width="1.5"></path><path d="M1568.35 245.47L1568.35 245.47" stroke="rgba(0, 0, 0, 1)" stroke-width="1.5"></path><path d="M1609.02 403.2L1609.02 403.2" stroke="rgba(0, 0, 0, 1)" stroke-width="1.5"></path><path d="M1609.02 403.2L1547.78 511.14" stroke="rgba(0, 0, 0, 1)" stroke-width="1.5"></path><path d="M1609.02 403.2L1568.35 245.47" stroke="rgba(0, 0, 0, 1)" stroke-width="1.5"></path><path d="M1609.02 403.2L1418.07 354.54" stroke="rgba(0, 0, 0, 1)" stroke-width="1.5"></path><path d="M1547.78 511.14L1547.78 511.14" stroke="rgba(0, 0, 0, 1)" stroke-width="1.5"></path><path d="M1598.27 669.25L1598.27 669.25" stroke="rgba(0, 0, 0, 1)" stroke-width="1.5"></path><path d="M1598.27 669.25L1547.78 511.14" stroke="rgba(0, 0, 0, 1)" stroke-width="1.5"></path><circle r="5" cx="-112.28" cy="369.09" fill="rgba(0, 0, 0, 1)"></circle><circle r="5" cx="-44.55" cy="507.98" fill="rgba(0, 0, 0, 1)"></circle><circle r="5" cx="50.18" cy="395.24" fill="rgba(0, 0, 0, 1)"></circle><circle r="5" cx="112" cy="495.23" fill="rgba(0, 0, 0, 1)"></circle><circle r="5" cx="217.3" cy="349.6" fill="rgba(0, 0, 0, 1)"></circle><circle r="5" cx="198.43" cy="552.78" fill="rgba(0, 0, 0, 1)"></circle><circle r="5" cx="401.63" cy="349.9" fill="rgba(0, 0, 0, 1)"></circle><circle r="5" cx="361.07" cy="552.93" fill="rgba(0, 0, 0, 1)"></circle><circle r="5" cx="342.29" cy="694.32" fill="rgba(0, 0, 0, 1)"></circle><circle r="5" cx="536.85" cy="386.99" fill="rgba(0, 0, 0, 1)"></circle><circle r="5" cx="500.57" cy="535.4" fill="rgba(0, 0, 0, 1)"></circle><circle r="5" cx="533.9" cy="661.91" fill="rgba(0, 0, 0, 1)"></circle><circle r="5" cx="643.66" cy="390.14" fill="rgba(0, 0, 0, 1)"></circle><circle r="5" cx="668.86" cy="518.14" fill="rgba(0, 0, 0, 1)"></circle><circle r="5" cx="682.58" cy="671.86" fill="rgba(0, 0, 0, 1)"></circle><circle r="5" cx="840.13" cy="251.39" fill="rgba(0, 0, 0, 1)"></circle><circle r="5" cx="809.36" cy="384.95" fill="rgba(0, 0, 0, 1)"></circle><circle r="5" cx="853.21" cy="557.79" fill="rgba(0, 0, 0, 1)"></circle><circle r="5" cx="794.69" cy="684.65" fill="rgba(0, 0, 0, 1)"></circle><circle r="5" cx="955.25" cy="-97.61" fill="rgba(0, 0, 0, 1)"></circle><circle r="5" cx="999.68" cy="105.98" fill="rgba(0, 0, 0, 1)"></circle><circle r="5" cx="1010.92" cy="497.44" fill="rgba(0, 0, 0, 1)"></circle><circle r="5" cx="979.47" cy="670.09" fill="rgba(0, 0, 0, 1)"></circle><circle r="5" cx="1152.81" cy="-81.94" fill="rgba(0, 0, 0, 1)"></circle><circle r="5" cx="1159.85" cy="93.17" fill="rgba(0, 0, 0, 1)"></circle><circle r="5" cx="1125.86" cy="187.75" fill="rgba(0, 0, 0, 1)"></circle><circle r="5" cx="1123.07" cy="385.44" fill="rgba(0, 0, 0, 1)"></circle><circle r="5" cx="1142" cy="489.83" fill="rgba(0, 0, 0, 1)"></circle><circle r="5" cx="1109.34" cy="658.64" fill="rgba(0, 0, 0, 1)"></circle><circle r="5" cx="1250.5" cy="-50.7" fill="rgba(0, 0, 0, 1)"></circle><circle r="5" cx="1308.43" cy="92.49" fill="rgba(0, 0, 0, 1)"></circle><circle r="5" cx="1246.3" cy="218.1" fill="rgba(0, 0, 0, 1)"></circle><circle r="5" cx="1276.69" cy="354.82" fill="rgba(0, 0, 0, 1)"></circle><circle r="5" cx="1254.48" cy="538.21" fill="rgba(0, 0, 0, 1)"></circle><circle r="5" cx="1268.6" cy="647.44" fill="rgba(0, 0, 0, 1)"></circle><circle r="5" cx="1393.05" cy="-56.06" fill="rgba(0, 0, 0, 1)"></circle><circle r="5" cx="1458.69" cy="40.37" fill="rgba(0, 0, 0, 1)"></circle><circle r="5" cx="1442.73" cy="202.59" fill="rgba(0, 0, 0, 1)"></circle><circle r="5" cx="1418.07" cy="354.54" fill="rgba(0, 0, 0, 1)"></circle><circle r="5" cx="1446.32" cy="527.28" fill="rgba(0, 0, 0, 1)"></circle><circle r="5" cx="1441.63" cy="657" fill="rgba(0, 0, 0, 1)"></circle><circle r="5" cx="1574.32" cy="-111.88" fill="rgba(0, 0, 0, 1)"></circle><circle r="5" cx="1539.87" cy="97.8" fill="rgba(0, 0, 0, 1)"></circle><circle r="5" cx="1568.35" cy="245.47" fill="rgba(0, 0, 0, 1)"></circle><circle r="5" cx="1609.02" cy="403.2" fill="rgba(0, 0, 0, 1)"></circle><circle r="5" cx="1547.78" cy="511.14" fill="rgba(0, 0, 0, 1)"></circle><circle r="5" cx="1598.27" cy="669.25" fill="rgba(0, 0, 0, 1)"></circle><path d="M506.2 532.79L506.2 532.79" stroke="hsl(45.60000000000002, 100%, 65%)" stroke-width="1.5"></path><path d="M506.2 532.79L352.94 560.49" stroke="hsl(45.60000000000002, 100%, 65%)" stroke-width="1.5"></path><path d="M506.2 532.79L670.87 511.96" stroke="hsl(45.60000000000002, 100%, 65%)" stroke-width="1.5"></path><path d="M506.2 532.79L510.68 705.46" stroke="hsl(45.60000000000002, 100%, 65%)" stroke-width="1.5"></path><path d="M506.2 532.79L644.34 648.16" stroke="hsl(45.60000000000002, 100%, 65%)" stroke-width="1.5"></path><path d="M506.2 532.79L373.21 679.46" stroke="hsl(45.60000000000002, 100%, 65%)" stroke-width="1.5"></path><path d="M506.2 532.79L684.45 398.59" stroke="hsl(45.60000000000002, 100%, 65%)" stroke-width="1.5"></path><path d="M510.68 705.46L510.68 705.46" stroke="hsl(45.60000000000002, 100%, 65%)" stroke-width="1.5"></path><path d="M510.68 705.46L373.21 679.46" stroke="hsl(45.60000000000002, 100%, 65%)" stroke-width="1.5"></path><path d="M510.68 705.46L644.34 648.16" stroke="hsl(45.60000000000002, 100%, 65%)" stroke-width="1.5"></path><path d="M1106.76 689.49L1106.76 689.49" stroke="hsl(45.60000000000002, 100%, 65%)" stroke-width="1.5"></path><path d="M1106.76 689.49L1292.98 664.31" stroke="hsl(45.60000000000002, 100%, 65%)" stroke-width="1.5"></path><path d="M1106.76 689.49L1003.65 490.76" stroke="hsl(45.60000000000002, 100%, 65%)" stroke-width="1.5"></path><path d="M1106.76 689.49L1242.78 497.11" stroke="hsl(45.60000000000002, 100%, 65%)" stroke-width="1.5"></path><path d="M1106.76 689.49L830.34 648.26" stroke="hsl(45.60000000000002, 100%, 65%)" stroke-width="1.5"></path><path d="M1106.76 689.49L1161.62 411.84" stroke="hsl(45.60000000000002, 100%, 65%)" stroke-width="1.5"></path><path d="M1106.76 689.49L1391.42 702.38" stroke="hsl(45.60000000000002, 100%, 65%)" stroke-width="1.5"></path><path d="M1248.35 399.14L1248.35 399.14" stroke="hsl(45.60000000000002, 100%, 65%)" stroke-width="1.5"></path><path d="M1248.35 399.14L1161.62 411.84" stroke="hsl(45.60000000000002, 100%, 65%)" stroke-width="1.5"></path><path d="M1248.35 399.14L1242.78 497.11" stroke="hsl(45.60000000000002, 100%, 65%)" stroke-width="1.5"></path><path d="M1242.78 497.11L1242.78 497.11" stroke="hsl(45.60000000000002, 100%, 65%)" stroke-width="1.5"></path><path d="M1242.78 497.11L1161.62 411.84" stroke="hsl(45.60000000000002, 100%, 65%)" stroke-width="1.5"></path><path d="M1242.78 497.11L1292.98 664.31" stroke="hsl(45.60000000000002, 100%, 65%)" stroke-width="1.5"></path><path d="M1242.78 497.11L1459 550.81" stroke="hsl(45.60000000000002, 100%, 65%)" stroke-width="1.5"></path><path d="M1242.78 497.11L1003.65 490.76" stroke="hsl(45.60000000000002, 100%, 65%)" stroke-width="1.5"></path><path d="M1401.45 262.49L1401.45 262.49" stroke="hsl(45.60000000000002, 100%, 65%)" stroke-width="1.5"></path><path d="M1401.45 262.49L1278.47 230.02" stroke="hsl(45.60000000000002, 100%, 65%)" stroke-width="1.5"></path><path d="M1401.45 262.49L1460.71 397.58" stroke="hsl(45.60000000000002, 100%, 65%)" stroke-width="1.5"></path><path d="M1401.45 262.49L1425.88 105.45" stroke="hsl(45.60000000000002, 100%, 65%)" stroke-width="1.5"></path><path d="M1401.45 262.49L1563.35 191.28" stroke="hsl(45.60000000000002, 100%, 65%)" stroke-width="1.5"></path><path d="M-102.07 509.98L-102.07 509.98" stroke="hsl(45.60000000000002, 100%, 65%)" stroke-width="1.5"></path><path d="M-102.07 509.98L-43.6 659.3" stroke="hsl(45.60000000000002, 100%, 65%)" stroke-width="1.5"></path><path d="M-102.07 509.98L60.93 534.28" stroke="hsl(45.60000000000002, 100%, 65%)" stroke-width="1.5"></path><path d="M-102.07 509.98L229.69 533.29" stroke="hsl(45.60000000000002, 100%, 65%)" stroke-width="1.5"></path><path d="M-102.07 509.98L211.91 667.76" stroke="hsl(45.60000000000002, 100%, 65%)" stroke-width="1.5"></path><path d="M-102.07 509.98L352.94 560.49" stroke="hsl(45.60000000000002, 100%, 65%)" stroke-width="1.5"></path><path d="M-102.07 509.98L373.21 679.46" stroke="hsl(45.60000000000002, 100%, 65%)" stroke-width="1.5"></path><path d="M-43.6 659.3L-43.6 659.3" stroke="hsl(45.60000000000002, 100%, 65%)" stroke-width="1.5"></path><path d="M-43.6 659.3L60.93 534.28" stroke="hsl(45.60000000000002, 100%, 65%)" stroke-width="1.5"></path><path d="M-43.6 659.3L211.91 667.76" stroke="hsl(45.60000000000002, 100%, 65%)" stroke-width="1.5"></path><path d="M-43.6 659.3L229.69 533.29" stroke="hsl(45.60000000000002, 100%, 65%)" stroke-width="1.5"></path><path d="M60.93 534.28L60.93 534.28" stroke="hsl(45.60000000000002, 100%, 65%)" stroke-width="1.5"></path><path d="M60.93 534.28L229.69 533.29" stroke="hsl(45.60000000000002, 100%, 65%)" stroke-width="1.5"></path><path d="M60.93 534.28L211.91 667.76" stroke="hsl(45.60000000000002, 100%, 65%)" stroke-width="1.5"></path><path d="M60.93 534.28L352.94 560.49" stroke="hsl(45.60000000000002, 100%, 65%)" stroke-width="1.5"></path><path d="M229.69 533.29L229.69 533.29" stroke="hsl(45.60000000000002, 100%, 65%)" stroke-width="1.5"></path><path d="M229.69 533.29L352.94 560.49" stroke="hsl(45.60000000000002, 100%, 65%)" stroke-width="1.5"></path><path d="M229.69 533.29L211.91 667.76" stroke="hsl(45.60000000000002, 100%, 65%)" stroke-width="1.5"></path><path d="M229.69 533.29L373.21 679.46" stroke="hsl(45.60000000000002, 100%, 65%)" stroke-width="1.5"></path><path d="M229.69 533.29L506.2 532.79" stroke="hsl(45.60000000000002, 100%, 65%)" stroke-width="1.5"></path><path d="M211.91 667.76L211.91 667.76" stroke="hsl(45.60000000000002, 100%, 65%)" stroke-width="1.5"></path><path d="M211.91 667.76L373.21 679.46" stroke="hsl(45.60000000000002, 100%, 65%)" stroke-width="1.5"></path><path d="M211.91 667.76L352.94 560.49" stroke="hsl(45.60000000000002, 100%, 65%)" stroke-width="1.5"></path><path d="M352.94 560.49L352.94 560.49" stroke="hsl(45.60000000000002, 100%, 65%)" stroke-width="1.5"></path><path d="M352.94 560.49L373.21 679.46" stroke="hsl(45.60000000000002, 100%, 65%)" stroke-width="1.5"></path><path d="M373.21 679.46L373.21 679.46" stroke="hsl(45.60000000000002, 100%, 65%)" stroke-width="1.5"></path><path d="M373.21 679.46L644.34 648.16" stroke="hsl(45.60000000000002, 100%, 65%)" stroke-width="1.5"></path><path d="M684.45 398.59L684.45 398.59" stroke="hsl(45.60000000000002, 100%, 65%)" stroke-width="1.5"></path><path d="M684.45 398.59L792.74 387.23" stroke="hsl(45.60000000000002, 100%, 65%)" stroke-width="1.5"></path><path d="M684.45 398.59L670.87 511.96" stroke="hsl(45.60000000000002, 100%, 65%)" stroke-width="1.5"></path><path d="M684.45 398.59L644.34 648.16" stroke="hsl(45.60000000000002, 100%, 65%)" stroke-width="1.5"></path><path d="M670.87 511.96L670.87 511.96" stroke="hsl(45.60000000000002, 100%, 65%)" stroke-width="1.5"></path><path d="M670.87 511.96L644.34 648.16" stroke="hsl(45.60000000000002, 100%, 65%)" stroke-width="1.5"></path><path d="M670.87 511.96L792.74 387.23" stroke="hsl(45.60000000000002, 100%, 65%)" stroke-width="1.5"></path><path d="M670.87 511.96L830.34 648.26" stroke="hsl(45.60000000000002, 100%, 65%)" stroke-width="1.5"></path><path d="M644.34 648.16L644.34 648.16" stroke="hsl(45.60000000000002, 100%, 65%)" stroke-width="1.5"></path><path d="M792.74 387.23L792.74 387.23" stroke="hsl(45.60000000000002, 100%, 65%)" stroke-width="1.5"></path><path d="M830.34 648.26L830.34 648.26" stroke="hsl(45.60000000000002, 100%, 65%)" stroke-width="1.5"></path><path d="M830.34 648.26L644.34 648.16" stroke="hsl(45.60000000000002, 100%, 65%)" stroke-width="1.5"></path><path d="M830.34 648.26L1003.65 490.76" stroke="hsl(45.60000000000002, 100%, 65%)" stroke-width="1.5"></path><path d="M830.34 648.26L792.74 387.23" stroke="hsl(45.60000000000002, 100%, 65%)" stroke-width="1.5"></path><path d="M1003.65 490.76L1003.65 490.76" stroke="hsl(45.60000000000002, 100%, 65%)" stroke-width="1.5"></path><path d="M1003.65 490.76L1161.62 411.84" stroke="hsl(45.60000000000002, 100%, 65%)" stroke-width="1.5"></path><path d="M1003.65 490.76L792.74 387.23" stroke="hsl(45.60000000000002, 100%, 65%)" stroke-width="1.5"></path><path d="M1003.65 490.76L1248.35 399.14" stroke="hsl(45.60000000000002, 100%, 65%)" stroke-width="1.5"></path><path d="M1130.85 206.89L1130.85 206.89" stroke="hsl(45.60000000000002, 100%, 65%)" stroke-width="1.5"></path><path d="M1130.85 206.89L1278.47 230.02" stroke="hsl(45.60000000000002, 100%, 65%)" stroke-width="1.5"></path><path d="M1130.85 206.89L1161.62 411.84" stroke="hsl(45.60000000000002, 100%, 65%)" stroke-width="1.5"></path><path d="M1130.85 206.89L1248.35 399.14" stroke="hsl(45.60000000000002, 100%, 65%)" stroke-width="1.5"></path><path d="M1130.85 206.89L1290.09 40.48" stroke="hsl(45.60000000000002, 100%, 65%)" stroke-width="1.5"></path><path d="M1130.85 206.89L1401.45 262.49" stroke="hsl(45.60000000000002, 100%, 65%)" stroke-width="1.5"></path><path d="M1161.62 411.84L1161.62 411.84" stroke="hsl(45.60000000000002, 100%, 65%)" stroke-width="1.5"></path><path d="M1161.62 411.84L1278.47 230.02" stroke="hsl(45.60000000000002, 100%, 65%)" stroke-width="1.5"></path><path d="M1161.62 411.84L1401.45 262.49" stroke="hsl(45.60000000000002, 100%, 65%)" stroke-width="1.5"></path><path d="M1296.39 -91.7L1296.39 -91.7" stroke="hsl(45.60000000000002, 100%, 65%)" stroke-width="1.5"></path><path d="M1296.39 -91.7L1290.09 40.48" stroke="hsl(45.60000000000002, 100%, 65%)" stroke-width="1.5"></path><path d="M1296.39 -91.7L1457.08 -40.69" stroke="hsl(45.60000000000002, 100%, 65%)" stroke-width="1.5"></path><path d="M1296.39 -91.7L1425.88 105.45" stroke="hsl(45.60000000000002, 100%, 65%)" stroke-width="1.5"></path><path d="M1296.39 -91.7L1550.08 -44.19" stroke="hsl(45.60000000000002, 100%, 65%)" stroke-width="1.5"></path><path d="M1290.09 40.48L1290.09 40.48" stroke="hsl(45.60000000000002, 100%, 65%)" stroke-width="1.5"></path><path d="M1290.09 40.48L1425.88 105.45" stroke="hsl(45.60000000000002, 100%, 65%)" stroke-width="1.5"></path><path d="M1290.09 40.48L1457.08 -40.69" stroke="hsl(45.60000000000002, 100%, 65%)" stroke-width="1.5"></path><path d="M1290.09 40.48L1278.47 230.02" stroke="hsl(45.60000000000002, 100%, 65%)" stroke-width="1.5"></path><path d="M1278.47 230.02L1278.47 230.02" stroke="hsl(45.60000000000002, 100%, 65%)" stroke-width="1.5"></path><path d="M1278.47 230.02L1248.35 399.14" stroke="hsl(45.60000000000002, 100%, 65%)" stroke-width="1.5"></path><path d="M1278.47 230.02L1425.88 105.45" stroke="hsl(45.60000000000002, 100%, 65%)" stroke-width="1.5"></path><path d="M1292.98 664.31L1292.98 664.31" stroke="hsl(45.60000000000002, 100%, 65%)" stroke-width="1.5"></path><path d="M1292.98 664.31L1391.42 702.38" stroke="hsl(45.60000000000002, 100%, 65%)" stroke-width="1.5"></path><path d="M1292.98 664.31L1459 550.81" stroke="hsl(45.60000000000002, 100%, 65%)" stroke-width="1.5"></path><path d="M1292.98 664.31L1248.35 399.14" stroke="hsl(45.60000000000002, 100%, 65%)" stroke-width="1.5"></path><path d="M1457.08 -40.69L1457.08 -40.69" stroke="hsl(45.60000000000002, 100%, 65%)" stroke-width="1.5"></path><path d="M1457.08 -40.69L1550.08 -44.19" stroke="hsl(45.60000000000002, 100%, 65%)" stroke-width="1.5"></path><path d="M1457.08 -40.69L1425.88 105.45" stroke="hsl(45.60000000000002, 100%, 65%)" stroke-width="1.5"></path><path d="M1425.88 105.45L1425.88 105.45" stroke="hsl(45.60000000000002, 100%, 65%)" stroke-width="1.5"></path><path d="M1425.88 105.45L1563.35 191.28" stroke="hsl(45.60000000000002, 100%, 65%)" stroke-width="1.5"></path><path d="M1425.88 105.45L1607.92 90.69" stroke="hsl(45.60000000000002, 100%, 65%)" stroke-width="1.5"></path><path d="M1460.71 397.58L1460.71 397.58" stroke="hsl(45.60000000000002, 100%, 65%)" stroke-width="1.5"></path><path d="M1460.71 397.58L1570.19 406.54" stroke="hsl(45.60000000000002, 100%, 65%)" stroke-width="1.5"></path><path d="M1460.71 397.58L1459 550.81" stroke="hsl(45.60000000000002, 100%, 65%)" stroke-width="1.5"></path><path d="M1460.71 397.58L1600.72 490.54" stroke="hsl(45.60000000000002, 100%, 65%)" stroke-width="1.5"></path><path d="M1460.71 397.58L1248.35 399.14" stroke="hsl(45.60000000000002, 100%, 65%)" stroke-width="1.5"></path><path d="M1459 550.81L1459 550.81" stroke="hsl(45.60000000000002, 100%, 65%)" stroke-width="1.5"></path><path d="M1391.42 702.38L1391.42 702.38" stroke="hsl(45.60000000000002, 100%, 65%)" stroke-width="1.5"></path><path d="M1391.42 702.38L1459 550.81" stroke="hsl(45.60000000000002, 100%, 65%)" stroke-width="1.5"></path><path d="M1391.42 702.38L1579.09 692.26" stroke="hsl(45.60000000000002, 100%, 65%)" stroke-width="1.5"></path><path d="M1391.42 702.38L1242.78 497.11" stroke="hsl(45.60000000000002, 100%, 65%)" stroke-width="1.5"></path><path d="M1391.42 702.38L1600.72 490.54" stroke="hsl(45.60000000000002, 100%, 65%)" stroke-width="1.5"></path><path d="M1550.08 -44.19L1550.08 -44.19" stroke="hsl(45.60000000000002, 100%, 65%)" stroke-width="1.5"></path><path d="M1550.08 -44.19L1607.92 90.69" stroke="hsl(45.60000000000002, 100%, 65%)" stroke-width="1.5"></path><path d="M1550.08 -44.19L1425.88 105.45" stroke="hsl(45.60000000000002, 100%, 65%)" stroke-width="1.5"></path><path d="M1550.08 -44.19L1563.35 191.28" stroke="hsl(45.60000000000002, 100%, 65%)" stroke-width="1.5"></path><path d="M1550.08 -44.19L1290.09 40.48" stroke="hsl(45.60000000000002, 100%, 65%)" stroke-width="1.5"></path><path d="M1607.92 90.69L1607.92 90.69" stroke="hsl(45.60000000000002, 100%, 65%)" stroke-width="1.5"></path><path d="M1607.92 90.69L1563.35 191.28" stroke="hsl(45.60000000000002, 100%, 65%)" stroke-width="1.5"></path><path d="M1607.92 90.69L1457.08 -40.69" stroke="hsl(45.60000000000002, 100%, 65%)" stroke-width="1.5"></path><path d="M1563.35 191.28L1563.35 191.28" stroke="hsl(45.60000000000002, 100%, 65%)" stroke-width="1.5"></path><path d="M1570.19 406.54L1570.19 406.54" stroke="hsl(45.60000000000002, 100%, 65%)" stroke-width="1.5"></path><path d="M1570.19 406.54L1600.72 490.54" stroke="hsl(45.60000000000002, 100%, 65%)" stroke-width="1.5"></path><path d="M1570.19 406.54L1459 550.81" stroke="hsl(45.60000000000002, 100%, 65%)" stroke-width="1.5"></path><path d="M1570.19 406.54L1563.35 191.28" stroke="hsl(45.60000000000002, 100%, 65%)" stroke-width="1.5"></path><path d="M1600.72 490.54L1600.72 490.54" stroke="hsl(45.60000000000002, 100%, 65%)" stroke-width="1.5"></path><path d="M1600.72 490.54L1459 550.81" stroke="hsl(45.60000000000002, 100%, 65%)" stroke-width="1.5"></path><path d="M1579.09 692.26L1579.09 692.26" stroke="hsl(45.60000000000002, 100%, 65%)" stroke-width="1.5"></path><path d="M1579.09 692.26L1459 550.81" stroke="hsl(45.60000000000002, 100%, 65%)" stroke-width="1.5"></path><path d="M1579.09 692.26L1600.72 490.54" stroke="hsl(45.60000000000002, 100%, 65%)" stroke-width="1.5"></path><path d="M1579.09 692.26L1570.19 406.54" stroke="hsl(45.60000000000002, 100%, 65%)" stroke-width="1.5"></path><path d="M1579.09 692.26L1292.98 664.31" stroke="hsl(45.60000000000002, 100%, 65%)" stroke-width="1.5"></path><circle r="25" cx="506.2" cy="532.79" fill="url(#SvgjsRadialGradient1017)"></circle><circle r="25" cx="510.68" cy="705.46" fill="url(#SvgjsRadialGradient1017)"></circle><circle r="25" cx="1106.76" cy="689.49" fill="url(#SvgjsRadialGradient1017)"></circle><circle r="25" cx="1248.35" cy="399.14" fill="url(#SvgjsRadialGradient1017)"></circle><circle r="25" cx="1242.78" cy="497.11" fill="url(#SvgjsRadialGradient1017)"></circle><circle r="25" cx="1401.45" cy="262.49" fill="url(#SvgjsRadialGradient1017)"></circle><circle r="5" cx="-102.07" cy="509.98" fill="#ffe180"></circle><circle r="5" cx="-43.6" cy="659.3" fill="#ffe180"></circle><circle r="5" cx="60.93" cy="534.28" fill="#ffe180"></circle><circle r="5" cx="229.69" cy="533.29" fill="#ffe180"></circle><circle r="5" cx="211.91" cy="667.76" fill="#ffe180"></circle><circle r="5" cx="352.94" cy="560.49" fill="#ffe180"></circle><circle r="5" cx="373.21" cy="679.46" fill="#ffe180"></circle><circle r="5" cx="684.45" cy="398.59" fill="#ffe180"></circle><circle r="5" cx="670.87" cy="511.96" fill="#ffe180"></circle><circle r="5" cx="644.34" cy="648.16" fill="#ffe180"></circle><circle r="5" cx="792.74" cy="387.23" fill="#ffe180"></circle><circle r="5" cx="830.34" cy="648.26" fill="#ffe180"></circle><circle r="5" cx="1003.65" cy="490.76" fill="#ffe180"></circle><circle r="5" cx="1130.85" cy="206.89" fill="#ffe180"></circle><circle r="5" cx="1161.62" cy="411.84" fill="#ffe180"></circle><circle r="5" cx="1296.39" cy="-91.7" fill="#ffe180"></circle><circle r="5" cx="1290.09" cy="40.48" fill="#ffe180"></circle><circle r="5" cx="1278.47" cy="230.02" fill="#ffe180"></circle><circle r="5" cx="1292.98" cy="664.31" fill="#ffe180"></circle><circle r="5" cx="1457.08" cy="-40.69" fill="#ffe180"></circle><circle r="5" cx="1425.88" cy="105.45" fill="#ffe180"></circle><circle r="5" cx="1460.71" cy="397.58" fill="#ffe180"></circle><circle r="5" cx="1459" cy="550.81" fill="#ffe180"></circle><circle r="5" cx="1391.42" cy="702.38" fill="#ffe180"></circle><circle r="5" cx="1550.08" cy="-44.19" fill="#ffe180"></circle><circle r="5" cx="1607.92" cy="90.69" fill="#ffe180"></circle><circle r="5" cx="1563.35" cy="191.28" fill="#ffe180"></circle><circle r="5" cx="1570.19" cy="406.54" fill="#ffe180"></circle><circle r="5" cx="1600.72" cy="490.54" fill="#ffe180"></circle><circle r="5" cx="1579.09" cy="692.26" fill="#ffe180"></circle></g><defs><mask id="SvgjsMask1016"><rect width="1440" height="560" fill="#ffffff"></rect></mask><radialGradient id="SvgjsRadialGradient1017"><stop stop-color="#ffffff" offset="0.1"></stop><stop stop-color="rgba(255, 194, 0, 1)" offset="0.2"></stop><stop stop-color="rgba(255, 194, 0, 0)" offset="1"></stop></radialGradient></defs></svg>